<?xml version="1.0" standalone="no"?>
<!DOCTYPE svg PUBLIC "-//W3C//DTD SVG 20010904//EN"
 "http://www.w3.org/TR/2001/REC-SVG-20010904/DTD/svg10.dtd">
<svg version="1.0" xmlns="http://www.w3.org/2000/svg"
 width="1200.000000pt" height="1200.000000pt" viewBox="0 0 1200.000000 1200.000000"
 preserveAspectRatio="xMidYMid meet">
<metadata>
Created by potrace 1.11, written by Peter Selinger 2001-2013
</metadata>
<g transform="translate(0.000000,1200.000000) scale(0.100000,-0.100000)"
fill="#000000" stroke="none">
<path d="M6301 10883 c-22 -26 -41 -50 -41 -53 0 -4 -11 -12 -24 -19 -13 -7
-29 -25 -35 -38 -10 -22 -16 -25 -45 -20 -19 3 -60 18 -91 33 -32 14 -72 30
-89 35 -17 4 -58 17 -91 29 -49 17 -84 22 -190 22 -80 1 -138 -3 -150 -10 -32
-18 -113 -42 -144 -42 -15 0 -38 -9 -51 -20 -18 -15 -36 -20 -80 -19 -71 2
-330 -32 -330 -43 0 -4 -9 -8 -21 -8 -41 0 -153 -40 -221 -80 -10 -5 -26 -15
-35 -20 -10 -6 -25 -13 -33 -16 -36 -12 -120 -57 -120 -63 0 -4 -20 -15 -45
-26 -25 -11 -45 -23 -45 -27 0 -5 -6 -8 -12 -8 -7 0 -39 -19 -71 -43 -86 -63
-143 -97 -179 -108 -18 -5 -57 -19 -86 -31 -40 -17 -51 -27 -48 -40 2 -10 3
-18 3 -19 -1 0 -22 -2 -47 -5 -106 -11 -129 -16 -140 -29 -15 -18 -37 -20 -42
-4 -3 10 -74 1 -318 -41 -30 -5 -82 -12 -115 -16 -33 -3 -87 -12 -120 -19 -33
-7 -85 -18 -115 -25 -30 -6 -67 -18 -82 -26 -34 -19 -145 -54 -169 -54 -11 0
-19 -4 -19 -10 0 -5 -15 -10 -32 -10 -35 0 -111 -31 -122 -48 -3 -6 -20 -13
-36 -17 -17 -4 -30 -11 -30 -16 0 -5 -5 -9 -10 -9 -11 0 -62 -34 -87 -57 -10
-9 -10 -12 0 -16 6 -2 -5 -8 -25 -12 -20 -4 -39 -13 -42 -21 -3 -8 -19 -14
-37 -14 -22 0 -32 -5 -36 -20 -4 -14 -14 -20 -32 -20 -29 0 -110 -37 -140 -64
-10 -9 -25 -14 -34 -11 -8 4 -23 -2 -34 -14 -11 -11 -39 -31 -64 -44 -31 -17
-43 -29 -41 -43 1 -10 -11 -34 -27 -52 -23 -25 -38 -32 -66 -32 -21 0 -49 -9
-65 -20 -21 -15 -30 -17 -33 -8 -4 8 -8 4 -12 -9 -4 -13 -12 -23 -18 -23 -6 0
-8 -22 -4 -60 5 -55 3 -62 -19 -79 -27 -21 -31 -41 -9 -41 25 0 17 -17 -17
-39 -18 -11 -27 -21 -20 -21 7 0 12 -15 12 -40 0 -22 -3 -39 -7 -39 -5 1 -17
1 -28 0 -16 -1 -17 -3 -6 -10 23 -14 25 -61 4 -83 -10 -11 -23 -43 -29 -71 -8
-33 -12 -42 -13 -26 -1 22 -17 39 -37 39 -2 0 -4 -18 -4 -40 0 -29 -4 -40 -15
-40 -8 0 -14 -4 -12 -9 1 -5 -13 -25 -30 -44 -18 -19 -37 -47 -43 -61 -10 -27
-31 -31 -40 -8 -3 7 -6 -15 -7 -49 -1 -45 -6 -67 -17 -75 -9 -6 -16 -19 -16
-28 0 -9 -3 -16 -7 -16 -5 0 -23 -14 -41 -31 -22 -21 -32 -39 -32 -60 0 -19
-5 -29 -15 -29 -16 0 -55 -30 -55 -42 0 -5 7 -8 15 -8 8 0 15 -7 15 -15 0 -10
-7 -15 -17 -13 -13 2 -19 -5 -21 -22 -2 -14 -9 -29 -15 -35 -7 -6 -12 -37 -13
-72 0 -54 -4 -65 -26 -87 -15 -13 -30 -40 -34 -62 -3 -22 -11 -45 -17 -52 -11
-14 -18 -69 -21 -162 -1 -56 -3 -65 -18 -62 -23 4 -24 -25 -1 -50 14 -15 15
-21 4 -27 -7 -5 -13 -19 -13 -32 -2 -91 24 -331 39 -369 3 -8 7 -19 7 -25 1
-5 5 -21 9 -35 4 -14 13 -43 19 -65 6 -22 21 -54 34 -70 12 -17 24 -51 27 -75
12 -94 19 -120 33 -120 31 0 68 -122 65 -217 -1 -24 3 -43 9 -43 5 0 10 -9 10
-19 0 -11 4 -22 9 -26 6 -3 10 -13 10 -23 0 -9 2 -75 5 -147 4 -105 2 -134
-10 -153 -13 -19 -13 -25 -1 -37 20 -20 14 -180 -7 -204 -19 -21 -46 -95 -46
-127 0 -12 -10 -30 -22 -38 -17 -12 -22 -24 -20 -50 3 -27 -1 -34 -17 -39 -13
-3 -21 -13 -21 -26 0 -35 -39 -101 -64 -111 -16 -6 -26 -20 -30 -44 -9 -46
-46 -86 -80 -86 -25 0 -31 -8 -27 -37 1 -7 -3 -13 -9 -13 -5 0 -10 5 -10 10 0
19 -17 9 -67 -40 -28 -27 -59 -50 -70 -51 -31 -1 -78 -34 -81 -57 -2 -12 -10
-22 -18 -22 -28 0 -57 -39 -68 -92 -9 -38 -18 -56 -34 -63 -12 -5 -22 -13 -22
-17 0 -5 -9 -8 -19 -8 -13 0 -21 -8 -23 -22 -2 -15 -9 -22 -21 -22 -9 1 -17
-2 -17 -6 0 -4 -7 -7 -16 -6 -9 0 -25 -15 -35 -34 -10 -19 -34 -41 -51 -50
-20 -9 -34 -24 -36 -37 -3 -22 -39 -37 -65 -27 -15 5 -31 -21 -22 -36 3 -5 -4
-11 -15 -15 -22 -7 -28 -50 -7 -58 6 -3 2 -6 -9 -6 -14 -1 -26 -12 -34 -31 -7
-16 -17 -30 -22 -30 -6 0 -8 -7 -4 -15 3 -8 -6 -27 -19 -42 -51 -58 -69 -94
-60 -121 5 -17 -6 -33 -49 -75 -31 -30 -56 -61 -56 -70 0 -20 -17 -23 -23 -4
-2 6 -2 3 1 -8 3 -11 5 -89 4 -172 -1 -84 3 -153 7 -153 13 0 34 -57 28 -74
-3 -7 1 -26 9 -41 8 -15 12 -31 9 -35 -3 -5 -1 -11 5 -15 5 -3 10 -22 10 -41
0 -22 5 -34 13 -34 8 0 20 -11 27 -25 12 -22 11 -27 -8 -44 -27 -23 -27 -25 0
-50 17 -17 24 -18 36 -8 13 10 14 8 10 -17 -6 -31 16 -66 42 -66 13 0 13 -2 0
-11 -11 -8 -12 -12 -2 -16 16 -6 15 -23 -4 -62 -9 -18 -13 -42 -10 -55 3 -13
3 -26 -1 -30 -8 -8 -10 -24 -19 -136 -6 -72 -4 -91 11 -120 13 -25 19 -61 21
-125 l3 -90 -13 60 c-16 81 -25 45 -19 -78 3 -63 1 -97 -6 -101 -6 -4 -11 -18
-11 -32 0 -13 -4 -24 -10 -24 -5 0 -10 -20 -10 -45 0 -29 -4 -45 -12 -45 -8 0
-9 -3 -3 -8 16 -11 36 -75 26 -81 -5 -4 -19 -36 -31 -73 -20 -62 -20 -69 -6
-84 9 -8 16 -20 16 -26 0 -7 4 -7 13 0 19 15 52 -3 67 -37 10 -24 10 -41 1
-78 -11 -42 -10 -49 6 -61 16 -11 18 -26 15 -135 -3 -117 -22 -301 -43 -417
-5 -30 -14 -102 -20 -160 -6 -58 -14 -119 -20 -136 -5 -17 -9 -66 -9 -110 0
-43 -7 -133 -15 -199 -15 -134 -17 -175 -10 -389 6 -224 -22 -308 -70 -203
-16 34 -20 38 -23 20 -5 -29 -32 -39 -39 -13 -3 11 -12 20 -19 20 -8 0 -20 11
-26 25 -6 14 -17 25 -25 25 -11 0 -13 -63 -13 -340 l0 -340 4915 0 c3925 0
4915 3 4916 13 1 6 1 20 0 29 -2 12 3 16 13 12 19 -7 22 -34 4 -34 -9 0 -9 -3
0 -12 6 -6 15 -8 19 -4 12 12 11 77 -1 73 -14 -5 -46 36 -46 60 0 15 -2 16
-10 3 -9 -13 -11 -13 -20 0 -15 23 -6 35 26 32 40 -5 50 -17 36 -46 -9 -19 -8
-25 4 -30 8 -3 14 0 15 7 0 7 3 21 5 32 3 11 5 35 4 53 0 19 3 31 9 28 5 -3
11 1 15 9 3 8 -2 18 -10 23 -8 5 -16 19 -18 33 -1 14 -5 30 -9 36 -4 6 -1 16
7 22 15 12 19 101 4 101 -5 0 -7 8 -4 18 3 9 1 24 -4 32 -7 11 -10 8 -10 -15
0 -22 -3 -26 -9 -15 -6 8 -8 17 -6 21 3 3 -7 4 -20 1 -15 -2 -25 0 -25 7 0 6
4 11 8 11 5 0 17 7 28 16 18 15 18 15 -3 5 -22 -11 -53 -5 -53 10 0 5 10 9 23
9 20 1 21 2 5 14 -20 14 -25 66 -7 66 6 0 8 11 4 28 -6 27 -4 28 25 24 25 -4
30 -1 30 16 0 15 -5 19 -20 15 -11 -3 -27 0 -35 7 -8 6 -19 9 -25 5 -5 -3 -10
-2 -10 3 0 15 28 23 32 10 6 -16 38 -2 38 16 0 8 -12 16 -27 18 l-28 4 37 19
c20 10 35 22 33 26 -11 17 9 67 30 77 21 10 22 14 12 36 -7 14 -18 26 -24 26
-7 0 -13 12 -14 28 0 24 -1 25 -9 7 -7 -17 -9 -15 -9 13 -1 22 -6 32 -17 32
-11 0 -14 5 -10 16 3 9 6 18 6 20 0 2 10 4 23 4 17 0 19 2 8 9 -8 5 -20 7 -27
4 -15 -5 -44 34 -44 61 0 11 7 28 17 38 9 11 11 18 5 18 -7 0 -12 9 -12 20 0
12 -7 32 -16 45 -11 17 -12 25 -4 25 7 0 6 5 -4 15 -8 8 -22 15 -30 15 -9 0
-16 5 -16 10 0 16 38 11 48 -7 13 -22 42 -10 42 18 0 13 -8 23 -21 26 -15 4
-19 11 -15 25 3 14 -1 22 -14 25 -15 4 -17 9 -10 23 5 9 6 20 3 24 -3 3 -1 6
5 6 7 0 12 -5 12 -11 0 -5 5 -7 10 -4 17 10 11 21 -16 34 -19 8 -25 17 -21 31
3 10 0 21 -7 24 -7 3 -7 8 3 14 12 9 12 13 2 26 -7 9 -18 13 -24 9 -6 -3 -7
-1 -3 5 4 7 16 12 27 12 10 0 19 5 19 11 0 14 -52 2 -62 -14 -4 -7 -7 6 -7 28
1 22 3 32 6 23 5 -19 18 -24 27 -9 3 5 -5 19 -17 32 -18 19 -22 30 -16 54 4
17 7 24 8 18 2 -24 21 -13 21 11 0 29 -20 46 -21 19 0 -14 -3 -12 -10 6 -7 18
-6 28 6 41 22 24 19 40 -7 40 -16 0 -19 3 -10 9 7 4 14 18 15 29 1 12 7 22 14
22 18 0 16 37 -1 43 -12 5 -13 13 -5 39 11 41 11 48 -1 48 -5 0 -10 -7 -10
-16 0 -14 -3 -14 -15 -4 -13 11 -13 14 2 26 17 13 17 14 -2 7 -16 -5 -18 -4
-9 8 8 9 9 37 4 84 -4 39 -8 60 -9 48 0 -13 -5 -23 -11 -23 -5 0 -11 -8 -11
-17 -1 -10 -5 0 -8 22 -5 35 -11 42 -41 52 l-35 12 34 0 c26 1 32 4 27 17 -3
9 -6 20 -6 25 0 4 -7 6 -15 3 -9 -4 -15 0 -15 9 0 9 9 19 20 22 22 7 26 20 9
30 -5 4 -8 21 -5 38 3 18 3 26 0 20 -7 -15 -34 -17 -34 -3 0 6 5 10 11 10 7 0
9 10 7 25 -4 21 -1 25 17 25 32 0 38 11 15 27 -14 10 -19 21 -14 35 5 17 3 19
-16 13 -17 -5 -21 -4 -18 6 3 8 12 13 20 11 27 -4 38 20 28 63 -9 41 0 65 26
65 23 0 16 23 -18 64 -21 25 -28 41 -20 44 19 6 14 18 -14 30 -16 8 -22 16
-17 25 4 6 6 23 4 36 -1 13 3 27 10 32 9 5 10 11 1 21 -6 7 -13 41 -17 76 -3
42 -16 84 -40 131 -19 38 -35 76 -35 84 0 13 -14 31 -93 117 -13 14 -26 33
-30 43 -4 10 -20 24 -37 30 -16 6 -34 23 -41 39 -6 15 -17 33 -25 39 -8 6 -14
20 -14 30 0 10 -9 23 -19 29 -37 19 -44 13 -39 -40 4 -42 3 -47 -8 -32 -7 9
-10 20 -8 24 3 5 1 8 -3 8 -5 0 -14 -9 -20 -19 -14 -23 -55 -18 -46 5 3 8 1
20 -5 27 -5 6 -12 33 -14 59 -5 40 -3 47 15 52 11 3 29 1 39 -5 17 -9 18 -2
18 136 0 83 -4 145 -9 145 -5 0 -13 10 -17 22 -3 12 -13 28 -20 35 -21 21
-124 179 -124 190 0 6 -15 23 -33 39 -18 16 -36 37 -40 47 -3 9 -11 17 -16 17
-12 0 -3 -28 28 -86 12 -21 21 -42 21 -47 0 -4 9 -17 20 -29 11 -12 20 -32 20
-46 0 -13 4 -32 10 -42 11 -20 4 -50 -11 -50 -5 0 -17 10 -27 21 -9 12 -23 27
-29 34 -7 8 -13 16 -13 20 0 3 -11 18 -25 33 -14 15 -25 32 -25 39 0 7 -9 18
-20 25 -11 7 -20 17 -20 23 0 5 -23 35 -50 65 -27 30 -50 59 -50 63 0 5 -9 22
-21 38 -11 16 -17 29 -12 29 4 0 -1 7 -11 15 -16 12 -17 17 -6 30 10 12 10 18
0 30 -12 15 -5 55 10 55 8 0 -5 52 -21 80 -5 8 -16 29 -25 47 -9 18 -27 44
-40 58 -13 14 -24 31 -24 36 0 6 -4 7 -10 4 -6 -3 -10 4 -10 16 0 21 -1 21
-18 6 -21 -19 -32 -22 -32 -8 0 21 -68 81 -92 81 -15 0 -29 6 -31 13 -3 6 -5
0 -4 -16 1 -29 75 -117 98 -117 18 0 98 -63 99 -78 0 -7 6 -15 14 -18 8 -3 17
-22 21 -42 4 -23 9 -31 15 -23 13 22 21 -5 10 -34 -7 -17 -7 -33 0 -45 6 -11
6 -28 1 -42 l-8 -23 -7 23 c-4 12 -13 22 -20 22 -7 0 -21 9 -32 21 -14 16 -26
19 -52 14 -44 -8 -98 3 -83 18 5 5 24 10 41 9 24 0 30 3 28 16 -2 10 -13 17
-26 16 -12 0 -22 5 -22 13 0 7 -11 13 -23 13 -13 0 -27 3 -31 7 -12 13 -30 9
-48 -9 -23 -23 -68 -24 -68 -2 0 8 7 23 16 31 10 10 13 25 10 39 -6 22 1 28
21 22 5 -2 7 -7 5 -12 -1 -4 24 -6 58 -4 44 3 60 1 61 -9 1 -7 2 -22 3 -32 2
-34 16 -35 22 -2 5 23 9 29 15 19 7 -10 9 -9 9 4 0 9 -18 35 -39 57 -39 40
-64 51 -76 31 -4 -6 -15 -6 -32 1 -43 16 -107 -7 -121 -43 -13 -35 -6 -59 16
-56 13 2 16 -5 13 -37 -4 -52 -7 -56 -37 -49 -20 5 -26 2 -31 -15 -8 -31 -24
-26 -21 6 2 15 -1 28 -7 29 -20 2 -60 21 -57 28 6 16 1 26 -13 26 -9 0 -20 11
-27 25 -6 13 -18 26 -27 28 -9 3 -4 5 12 6 15 0 27 -4 27 -10 0 -6 11 -9 25
-7 22 3 37 23 18 23 -23 1 -35 20 -29 46 3 15 1 31 -4 34 -6 3 -10 17 -10 31
0 22 2 23 21 12 17 -11 22 -10 34 5 7 10 15 14 16 9 6 -14 49 -25 49 -12 0 16
-47 60 -65 60 -8 0 -15 7 -15 16 0 23 -33 13 -45 -14 -13 -29 -43 -28 -57 3
-15 34 -26 31 -36 -7 -6 -23 -4 -46 5 -72 16 -48 16 -46 -2 -46 -8 0 -15 9
-15 20 0 20 -11 26 -23 13 -4 -3 -2 -12 4 -20 9 -10 8 -13 -4 -13 -9 0 -17 11
-19 27 -3 30 -40 42 -66 21 -13 -11 -14 -10 -8 10 6 18 4 22 -13 22 -12 0 -21
-7 -21 -15 0 -8 -3 -14 -7 -14 -22 4 -32 -3 -27 -16 4 -8 11 -12 17 -8 6 4 8
-2 4 -17 -3 -13 -1 -31 6 -39 9 -12 9 -13 0 -7 -9 5 -13 -2 -13 -25 0 -18 3
-29 7 -25 5 4 8 13 8 19 0 7 7 13 16 15 21 4 62 -59 53 -82 -8 -22 -21 -20
-29 4 -9 28 -32 25 -39 -6 -7 -25 -8 -26 -26 -9 -11 10 -22 33 -26 52 -5 25
-11 33 -21 28 -9 -3 -21 2 -28 11 -11 15 -13 13 -19 -19 -4 -21 -8 -37 -10
-37 -8 0 -66 32 -66 36 0 3 5 2 10 -1 6 -4 10 7 10 24 0 36 -25 43 -35 11 -9
-30 -49 -36 -80 -12 l-25 20 31 11 c22 7 29 15 25 26 -3 8 0 15 6 15 7 0 6 5
-2 15 -8 9 -21 13 -32 9 -10 -3 -25 -1 -32 5 -14 12 -114 13 -121 1 -2 -3 0
-12 4 -19 7 -10 13 -11 31 -1 18 10 24 9 36 -7 19 -26 18 -99 -2 -107 -22 -9
-24 -8 -24 9 0 8 -9 15 -20 15 -11 0 -20 5 -20 10 0 19 -32 10 -37 -10 -4 -16
-14 -20 -47 -21 l-41 -1 32 -14 c30 -13 31 -15 22 -46 -5 -18 -9 -34 -9 -35 0
-2 -7 -3 -15 -3 -8 0 -15 6 -15 13 0 9 -2 9 -9 -1 -7 -11 -9 -10 -15 3 -3 10
-15 15 -28 13 -17 -2 -23 2 -22 15 1 12 -3 16 -15 13 -21 -7 -36 4 -43 30 -4
17 -2 20 13 17 11 -3 19 0 19 6 0 6 -5 11 -11 11 -6 0 -8 9 -4 22 6 17 4 20
-10 15 -9 -4 -21 -7 -26 -7 -5 0 -9 -9 -9 -20 0 -11 -3 -19 -7 -19 -36 6 -63
-3 -63 -20 0 -39 -10 -50 -36 -41 -27 11 -41 -6 -31 -34 4 -9 -2 -17 -14 -21
-10 -4 -19 -15 -19 -26 0 -10 -6 -19 -14 -19 -7 0 -28 -3 -45 -6 -24 -5 -31
-3 -31 9 0 8 5 17 11 19 14 5 -10 48 -26 48 -5 0 -35 19 -65 42 -60 46 -46 43
-265 40 -38 -1 -107 0 -153 1 -73 2 -85 -1 -98 -17 -29 -41 -15 -92 77 -283
32 -67 59 -127 59 -133 0 -7 9 -24 19 -39 11 -15 27 -47 37 -72 10 -24 21 -46
24 -49 10 -7 40 -67 40 -79 0 -5 11 -22 25 -37 14 -15 25 -33 25 -40 0 -8 5
-14 10 -14 6 0 10 -9 10 -20 0 -11 3 -20 8 -20 11 0 88 -157 103 -210 7 -25
17 -48 21 -51 5 -3 27 -37 51 -76 40 -67 112 -159 149 -192 45 -39 27 -158
-29 -195 -18 -12 -33 -29 -33 -39 0 -10 -7 -29 -16 -43 -18 -26 -21 -42 -31
-142 -5 -51 -3 -66 12 -82 17 -18 23 -40 46 -155 5 -27 14 -59 18 -70 26 -59
33 -87 27 -109 -4 -17 -11 -23 -21 -20 -12 5 -15 -3 -15 -35 0 -23 6 -50 12
-61 11 -16 9 -22 -7 -34 -11 -9 -30 -16 -42 -16 -23 0 -31 -14 -13 -25 11 -7
2 -32 -19 -55 -24 -25 -61 -74 -61 -80 0 -9 -143 -126 -175 -142 -44 -23 -125
-40 -212 -43 -68 -4 -76 -2 -80 16 -4 16 -14 19 -59 19 -83 0 -213 54 -214 90
0 8 -9 26 -20 40 -11 14 -20 35 -20 48 0 27 -16 29 -23 2 -3 -11 -11 -20 -17
-20 -15 0 -6 73 10 78 5 2 10 10 10 17 0 7 6 16 13 18 10 4 10 6 0 6 -20 1
-15 18 7 24 23 6 27 27 5 27 -9 0 -20 12 -26 28 -6 15 -15 35 -20 45 -6 10 -7
22 -4 27 3 5 -2 13 -11 18 -14 8 -12 11 13 24 16 8 41 14 54 13 52 -5 74 31
47 75 -10 15 -9 30 1 72 8 29 17 55 20 58 9 7 41 79 41 91 0 5 8 22 18 36 18
29 41 104 42 141 0 13 6 22 15 22 10 0 15 10 15 28 0 21 -2 24 -10 12 -8 -13
-10 -12 -10 3 0 9 6 17 13 17 8 0 9 3 1 8 -6 4 -14 25 -18 47 -8 48 -26 95
-36 95 -4 0 -19 23 -34 51 -24 43 -32 50 -54 47 -21 -2 -26 -8 -25 -26 2 -12
-2 -22 -7 -22 -10 0 -14 25 -11 66 2 22 -42 69 -199 214 -162 149 -180 166
-180 177 0 6 -6 13 -13 16 -8 3 -26 30 -42 61 -16 31 -32 56 -37 56 -4 0 -8 7
-8 15 0 8 -6 15 -13 15 -7 0 -23 10 -34 23 -23 25 -49 46 -84 66 -212 124
-243 147 -323 244 -22 26 -49 50 -60 53 -12 3 -34 25 -51 50 -16 24 -35 44
-41 44 -7 0 -25 16 -40 35 -36 44 -151 165 -157 165 -11 0 -65 59 -102 110
-22 30 -47 62 -57 71 -10 9 -18 23 -18 32 0 8 -14 29 -31 47 -51 50 -236 200
-248 200 -25 0 -7 -31 49 -83 33 -31 60 -59 60 -61 0 -3 19 -24 41 -48 51 -54
67 -77 79 -117 8 -28 7 -30 -10 -21 -32 17 -41 12 -34 -17 3 -16 13 -37 20
-48 73 -105 82 -135 39 -135 -15 0 -31 -9 -41 -25 -9 -14 -22 -25 -29 -25 -7
0 -25 -14 -39 -31 -15 -17 -32 -29 -40 -26 -7 3 -19 0 -25 -6 -12 -12 -15 -41
-3 -34 4 3 8 -10 9 -29 2 -23 -3 -40 -17 -54 -11 -11 -20 -28 -20 -39 0 -10
-7 -24 -15 -31 -8 -7 -15 -22 -15 -34 0 -11 -14 -39 -30 -60 -17 -22 -30 -44
-30 -50 0 -10 -28 -42 -150 -173 -50 -52 -80 -101 -80 -126 0 -8 -9 -24 -20
-37 -11 -13 -20 -29 -20 -35 0 -7 -7 -15 -15 -19 -8 -3 -15 -10 -15 -16 0 -13
-66 -78 -104 -104 -15 -9 -31 -28 -36 -40 -11 -31 -48 -67 -107 -107 -49 -33
-83 -63 -83 -74 0 -3 -9 -15 -20 -27 -11 -12 -20 -28 -20 -35 0 -7 -6 -13 -14
-13 -8 0 -24 -12 -35 -26 -15 -20 -21 -22 -21 -10 0 9 4 16 8 16 10 0 11 11
15 93 1 33 -1 61 -5 64 -5 2 -8 29 -8 59 0 42 -5 59 -22 76 -11 11 -22 34 -23
49 -3 31 -26 59 -48 59 -24 0 -131 -122 -150 -170 -5 -13 -6 -13 -7 0 -1 8 -7
-9 -13 -39 -11 -50 -37 -83 -37 -47 0 9 -4 16 -10 16 -5 0 -10 -7 -10 -15 0
-8 -9 -15 -20 -15 -11 0 -20 -7 -20 -15 0 -20 -32 -35 -78 -35 -31 0 -41 4
-45 19 -3 14 -11 18 -24 15 -11 -3 -26 3 -37 15 -11 12 -28 21 -38 21 -23 0
-38 37 -38 91 0 26 -7 46 -20 59 -11 11 -20 33 -20 49 0 38 -7 41 -47 25 -37
-16 -45 -44 -13 -44 17 0 19 -3 11 -19 -17 -32 -36 -30 -75 5 -31 28 -37 40
-32 59 4 16 2 25 -5 25 -6 0 -8 7 -5 16 3 9 3 21 -1 27 -4 7 -9 3 -14 -9 -6
-16 -8 -14 -14 13 -4 17 -14 34 -22 37 -10 4 -11 10 -4 25 12 21 5 31 -21 31
-10 0 -18 -7 -18 -15 0 -9 -6 -12 -17 -8 -13 5 -15 2 -11 -15 5 -19 2 -22 -23
-22 -23 0 -30 5 -34 28 -4 15 -11 46 -17 69 -6 24 -8 61 -4 82 3 22 2 41 -3
43 -6 2 -5 22 1 49 6 26 7 55 3 65 -5 11 -9 35 -11 54 -2 26 -1 31 7 20 8 -11
12 -12 15 -3 4 8 14 3 30 -15 33 -37 41 -21 42 86 1 66 5 88 17 94 9 5 15 23
15 43 0 18 5 46 10 61 7 19 7 36 -2 60 -9 26 -9 37 0 46 7 7 12 22 12 34 0 17
5 20 25 16 18 -3 25 0 25 12 0 9 4 16 10 16 18 0 22 48 6 72 -21 29 -21 74 0
82 9 3 19 4 24 1 4 -3 24 10 44 28 28 26 36 41 36 69 0 27 6 38 25 48 14 7 25
21 25 31 0 10 4 21 10 24 5 3 10 16 10 28 1 27 25 61 38 53 6 -3 13 0 15 6 9
21 28 -14 22 -39 -4 -18 -1 -21 17 -19 13 1 35 8 50 14 28 11 46 32 29 32 -21
0 -11 27 14 38 23 11 29 21 23 39 -2 5 -6 7 -10 6 -5 -2 -8 4 -8 13 0 9 9 18
20 21 11 3 20 9 20 13 0 4 9 10 20 13 12 3 20 14 20 26 0 22 -14 28 -25 11 -9
-15 -22 -12 -29 6 -4 9 0 24 9 34 17 19 20 60 5 60 -7 0 -7 6 0 19 13 25 13
64 0 56 -12 -7 -14 8 -3 19 5 4 13 30 19 56 9 39 8 52 -2 62 -19 19 28 78 56
71 14 -4 20 0 20 11 0 9 -6 16 -12 16 -10 0 -9 3 1 9 8 5 11 16 7 29 -7 22 8
39 19 22 8 -13 45 22 65 59 10 20 10 26 -2 35 -35 26 22 133 89 166 40 20 66
60 49 77 -3 4 -6 -1 -6 -10 0 -19 -26 -23 -32 -5 -6 16 14 58 27 58 17 0 70
51 67 65 -1 8 8 15 25 17 27 3 31 11 22 48 -3 11 6 15 36 16 21 1 41 6 43 13
2 6 8 11 13 11 5 0 22 8 36 18 15 9 44 17 65 18 40 0 82 29 74 50 -3 8 6 14
27 16 28 3 32 7 35 36 2 18 -1 32 -7 32 -6 0 -13 0 -16 0 -3 0 -16 10 -29 21
-21 18 -23 24 -11 35 7 8 24 14 36 14 12 0 37 11 55 25 18 14 35 25 39 25 3 0
31 16 61 35 30 19 61 35 69 35 8 0 15 3 15 8 0 4 21 16 48 26 26 11 53 26 61
34 7 7 20 11 27 8 8 -3 14 -2 14 3 0 4 12 13 26 20 19 8 23 15 16 24 -16 18 2
40 25 33 22 -7 45 14 50 45 3 22 2 22 -29 10 -13 -6 -40 -12 -60 -16 -23 -4
-35 -10 -32 -18 3 -9 -10 -11 -48 -9 -67 5 -78 15 -42 38 16 11 37 26 47 35
10 9 45 19 80 23 74 8 158 26 171 38 14 12 96 10 96 -2 0 -5 -15 -10 -32 -10
-18 -1 -43 -6 -56 -14 -22 -12 -22 -13 -6 -27 20 -16 152 -16 183 1 14 7 21 6
24 -3 3 -9 9 -8 23 4 10 10 28 19 39 21 11 2 25 14 32 28 12 25 13 25 13 3 0
-13 4 -23 9 -23 18 0 23 22 10 46 -9 18 -15 21 -21 12 -5 -10 -8 -8 -8 5 0 12
-8 17 -30 17 -44 0 -37 19 9 26 22 4 49 15 60 25 11 11 25 19 31 19 5 0 10 4
10 8 0 5 19 17 43 27 23 9 54 23 69 31 14 8 43 13 65 13 23 -1 29 -3 16 -6
-14 -3 -23 -12 -23 -23 0 -10 -4 -22 -10 -25 -17 -10 -11 -25 10 -25 14 0 20
-7 20 -21 0 -11 4 -18 9 -15 5 3 7 14 4 25 -4 15 0 18 22 13 14 -2 37 1 50 8
15 8 42 11 72 7 54 -6 143 9 143 25 0 6 -11 7 -26 4 -14 -4 -47 -4 -72 0 l-45
7 37 19 c26 13 36 24 32 34 -3 9 -6 17 -6 20 0 2 -11 -1 -24 -5 -13 -5 -42 -7
-65 -4 -29 4 -41 2 -41 -7 0 -8 10 -11 30 -8 18 3 35 -1 42 -9 19 -23 2 -26
-56 -9 -48 14 -56 20 -56 41 0 15 9 29 23 36 12 6 36 27 53 45 18 19 37 34 43
34 6 0 11 7 11 15 0 25 -1 24 -140 -51 -19 -11 -40 -25 -48 -31 -7 -7 -20 -13
-29 -13 -15 0 -75 -38 -81 -52 -2 -4 -12 -8 -23 -8 -10 0 -19 -4 -19 -10 0 -5
-16 -12 -35 -16 -19 -3 -35 -10 -35 -15 0 -5 -7 -9 -16 -9 -20 0 -87 -31 -96
-44 -8 -13 -94 -9 -136 6 -27 10 -35 10 -41 -1 -7 -10 -13 -11 -31 -1 -18 10
-20 14 -9 22 10 7 9 8 -6 3 -25 -10 -125 -17 -105 -8 8 3 21 12 28 20 12 12
12 17 -4 34 -21 24 -45 9 -24 -16 10 -13 9 -15 -9 -15 -11 0 -21 -5 -21 -10 0
-17 -40 14 -46 35 -3 11 -20 27 -37 36 -39 19 -44 38 -18 67 10 13 29 48 41
80 12 31 26 65 31 74 5 10 9 41 9 70 0 47 -3 55 -36 85 -20 18 -47 36 -60 39
-13 4 -24 9 -24 13 0 4 -20 15 -44 25 -47 20 -101 77 -111 119 -6 21 0 33 24
59 17 18 34 43 37 56 4 12 10 22 14 22 4 0 11 8 14 18 7 20 27 54 43 73 6 8
24 39 40 69 17 30 46 83 66 117 19 34 39 72 42 85 4 13 23 56 41 96 19 41 34
85 34 99 0 15 13 38 35 60 19 19 35 39 35 44 0 5 4 9 8 9 5 0 19 20 32 45 13
25 29 50 37 56 7 6 13 17 13 25 0 17 15 25 33 18 17 -6 25 -51 33 -189 2 -49
7 -101 9 -115 15 -86 31 -150 37 -150 5 0 8 -10 8 -22 0 -13 12 -31 25 -41
l25 -18 0 80 c0 54 -4 81 -12 84 -17 6 4 30 29 33 10 2 35 5 55 8 34 6 37 4
43 -23 4 -18 0 -41 -11 -64 -13 -27 -14 -41 -6 -65 9 -26 7 -35 -14 -66 -26
-38 -27 -36 20 -50 15 -5 26 14 26 44 0 11 11 32 24 47 24 28 25 28 40 8 8
-11 18 -37 21 -57 4 -21 11 -38 15 -38 5 0 10 -10 12 -22 3 -13 2 16 0 65 -5
97 2 114 59 137 41 17 36 28 -13 32 -40 3 -43 5 -46 34 -2 16 2 42 7 58 10 26
14 27 68 24 55 -3 58 -4 80 -43 12 -22 23 -45 23 -51 0 -6 -19 -16 -42 -21
-34 -8 -39 -11 -25 -18 19 -8 125 12 142 27 16 14 35 9 36 -9 0 -14 3 -13 11
5 6 12 17 22 24 22 8 0 44 16 81 35 40 22 85 37 112 39 56 5 83 15 78 30 -6
19 -79 48 -140 56 -31 3 -61 11 -66 16 -17 17 3 128 27 152 12 12 27 22 32 22
6 0 10 3 10 8 0 9 58 42 75 42 24 0 66 23 62 34 -2 5 -23 11 -47 13 -51 3 -57
7 -40 28 11 13 15 13 22 3 5 -8 6 -2 2 15 -4 17 -2 27 5 27 6 0 11 11 11 25 0
14 4 25 9 25 5 0 12 12 16 27 8 33 24 55 35 48 5 -3 6 -14 3 -25 -4 -14 0 -20
11 -20 9 0 16 4 16 9 0 5 7 16 15 24 8 8 15 33 16 55 2 28 7 38 16 35 9 -4 13
5 13 28 0 38 19 28 24 -12 2 -13 8 -35 13 -49 6 -14 13 -65 16 -113 3 -49 10
-94 15 -100 11 -14 21 -112 25 -234 1 -46 5 -83 8 -83 3 0 14 -20 25 -45 10
-25 21 -45 24 -45 6 0 20 60 39 165 l8 40 11 -28 c14 -32 10 -109 -7 -151 -7
-16 -10 -35 -7 -42 8 -20 -6 -25 -20 -6 -10 14 -12 3 -9 -63 3 -79 -14 -141
-62 -235 -7 -13 -10 -26 -8 -28 11 -11 63 49 88 100 16 32 34 58 40 58 7 0 18
18 24 40 17 51 65 154 75 158 4 2 8 9 8 16 0 17 38 51 47 42 4 -4 2 -16 -5
-26 -16 -26 -15 -35 2 -21 11 9 14 -3 19 -71 4 -73 2 -87 -17 -115 -11 -18
-27 -33 -33 -33 -7 0 -13 -4 -13 -8 0 -5 -12 -15 -26 -22 -14 -8 -30 -22 -35
-32 -9 -17 -7 -18 18 -12 15 4 42 8 58 8 17 1 33 5 36 10 19 25 27 -13 26
-117 -2 -106 -1 -112 14 -93 23 30 59 103 59 120 0 8 4 16 10 18 5 2 11 17 13
34 6 45 37 92 65 97 18 3 26 0 29 -14 3 -11 9 -19 13 -19 4 0 7 -42 7 -92 0
-99 16 -168 39 -168 16 0 19 -36 4 -45 -13 -8 -13 -52 0 -60 6 -4 36 -1 66 5
41 9 58 17 61 31 3 10 9 19 14 19 5 0 29 18 53 40 24 22 46 40 49 40 3 0 10
-14 16 -31 14 -40 15 -112 1 -104 -5 3 -10 3 -10 -2 0 -12 -47 -63 -135 -143
-44 -40 -98 -90 -120 -110 -50 -46 -68 -56 -125 -65 -25 -4 -61 -16 -82 -26
-30 -15 -52 -18 -136 -13 -88 4 -105 2 -139 -16 -21 -11 -52 -20 -70 -20 -18
0 -33 -4 -33 -10 0 -14 -70 -6 -80 10 -10 17 -160 28 -160 11 0 -6 -8 -10 -17
-9 -24 3 -103 -23 -103 -34 0 -4 -9 -8 -19 -8 -11 0 -23 -5 -26 -11 -4 -6 -13
-8 -21 -5 -8 3 -14 0 -14 -7 0 -14 53 -57 70 -57 5 0 10 -6 10 -14 0 -21 6
-23 94 -31 l79 -8 -22 22 c-11 11 -21 25 -21 30 0 5 -12 12 -27 16 -49 12 -4
25 88 25 68 0 88 3 93 15 3 10 -1 15 -12 16 -13 0 -11 3 6 9 23 10 76 7 178
-8 64 -10 152 -2 163 15 9 15 92 27 100 16 3 -6 48 -13 99 -17 86 -6 92 -6 92
12 0 14 12 23 45 32 25 7 48 17 51 21 3 5 22 16 42 26 34 15 180 110 192 124
11 13 75 39 96 39 13 0 26 5 29 10 3 6 10 10 14 10 21 0 65 -151 62 -212 -1
-16 4 -28 10 -28 6 0 9 -9 6 -20 -3 -11 -1 -18 4 -14 5 3 9 -6 9 -19 0 -21 16
-37 37 -37 6 0 1 110 -13 307 -6 73 -4 95 7 106 10 10 15 42 17 100 1 48 7
119 12 159 5 40 10 117 10 170 0 54 4 117 10 140 5 24 16 86 25 138 21 126 22
127 49 134 13 3 31 8 39 11 15 6 80 -42 73 -53 -2 -4 1 -18 6 -32 9 -23 11
-23 17 -6 7 17 9 17 34 -6 15 -14 27 -28 27 -32 0 -3 24 -30 54 -59 29 -28 51
-58 49 -64 -3 -7 -1 -13 4 -13 5 0 18 -8 29 -18 10 -10 42 -22 69 -27 41 -8
51 -14 53 -32 2 -13 10 -23 18 -23 13 0 53 -19 64 -30 18 -19 72 -33 115 -31
54 3 115 20 115 33 0 4 13 8 29 8 16 0 50 9 76 20 26 11 64 19 84 19 20 -1 44
1 53 5 14 6 16 3 12 -23 -3 -17 -2 -31 1 -31 15 0 32 26 27 42 -2 10 1 18 7
18 6 0 11 -7 11 -16 0 -42 66 -58 107 -26 12 9 37 49 56 87 42 86 52 115 38
115 -14 0 -14 77 -1 85 6 3 10 17 10 31 0 14 6 24 14 24 27 0 49 110 26 125
-14 8 -13 74 2 115 8 25 8 44 -1 80 -7 26 -13 83 -15 126 -4 91 -24 250 -37
279 -4 11 -11 70 -13 131 -3 61 -10 123 -16 138 -5 15 -10 37 -10 50 0 12 -8
38 -18 58 -12 23 -16 42 -11 57 6 15 4 21 -5 21 -8 0 -17 7 -20 16 -4 12 -1
14 13 9 27 -8 33 6 15 39 -7 16 -14 39 -14 52 0 12 -5 26 -11 30 -6 3 -20 26
-31 50 -10 24 -25 44 -33 44 -10 0 -15 10 -15 30 0 20 -5 30 -15 30 -12 0 -15
11 -14 53 1 28 -2 62 -6 75 -5 13 -3 22 4 22 21 0 86 -40 105 -65 26 -34 37
-31 23 6 -7 18 -29 46 -50 63 -22 17 -58 49 -82 71 -24 22 -75 63 -114 90 -38
28 -70 53 -70 56 -1 4 8 9 19 12 33 8 23 22 -27 36 -65 20 -103 40 -134 72
-74 76 -296 174 -484 214 -44 10 -107 26 -140 38 -46 16 -89 21 -190 22 l-129
2 -21 34 c-12 19 -30 55 -41 81 -10 27 -22 48 -27 48 -4 0 -7 -22 -6 -50 1
-27 6 -50 11 -50 4 0 8 -11 8 -23 0 -39 -34 -60 -100 -65 -68 -5 -64 -12 -61
108 1 54 -1 61 -10 40 -5 -14 -13 -50 -17 -80 -7 -52 -9 -55 -35 -56 -36 -1
-107 49 -107 76 0 18 18 56 62 128 31 50 -1 41 -51 -15z m1259 -433 c0 -5 7
-10 15 -10 8 0 15 -4 15 -10 0 -16 -16 -12 -41 10 -20 16 -21 19 -6 20 9 0 17
-4 17 -10z m360 -380 c0 -5 -2 -10 -4 -10 -3 0 -8 5 -11 10 -3 6 -1 10 4 10 6
0 11 -4 11 -10z m60 -230 c5 0 11 -9 15 -19 3 -11 19 -32 35 -48 25 -25 35
-52 31 -90 -1 -18 -21 -16 -21 2 0 8 -4 15 -10 15 -5 0 -10 7 -10 15 0 8 -4
15 -10 15 -5 0 -13 12 -16 27 -4 15 -13 38 -20 52 -8 14 -13 35 -13 46 1 17 2
17 6 3 2 -10 8 -18 13 -18z m-3429 -252 c12 -23 11 -86 -12 -463 -15 -252 -20
-295 -39 -340 -5 -11 -16 -43 -25 -72 -9 -28 -25 -63 -36 -77 -11 -14 -27 -46
-35 -71 -9 -25 -20 -47 -25 -51 -5 -3 -9 -14 -9 -25 0 -10 -4 -19 -8 -19 -5 0
-14 -11 -20 -25 -17 -36 -25 -31 -45 26 -13 36 -38 69 -88 120 -38 38 -72 69
-77 69 -4 0 -22 16 -40 34 l-33 35 22 48 c35 79 54 118 60 123 13 13 73 174
93 255 34 133 61 200 100 256 20 27 36 51 36 54 0 8 17 28 70 84 62 66 91 76
111 39z m2696 -385 c6 -44 5 -47 -10 -34 -12 9 -17 29 -17 65 1 62 17 44 27
-31z m-1 -196 c-4 -169 -19 -259 -61 -368 -36 -93 -58 -129 -71 -116 -7 7 3
41 55 185 16 46 33 104 36 130 21 154 26 203 25 250 -1 33 3 51 9 48 5 -4 8
-57 7 -129z m744 -18 c0 -16 -4 -29 -10 -29 -5 0 -10 16 -10 36 0 21 4 33 10
29 6 -3 10 -19 10 -36z m-2700 6 c0 -8 -4 -15 -10 -15 -5 0 -7 7 -4 15 4 8 8
15 10 15 2 0 4 -7 4 -15z m-3563 -87 c-3 -8 -6 -5 -6 6 -1 11 2 17 5 13 3 -3
4 -12 1 -19z m3057 -54 c2 -38 7 -102 11 -141 l8 -73 -46 0 c-25 0 -49 -4 -52
-10 -3 -5 -15 -10 -26 -10 -18 0 -20 6 -18 53 3 62 5 68 25 60 12 -4 13 -8 3
-13 -12 -8 -6 -40 8 -40 5 0 14 23 21 52 6 28 15 54 20 57 4 3 9 22 10 41 3
39 22 104 28 97 2 -2 6 -35 8 -73z m3183 39 c-3 -10 -5 -4 -5 12 0 17 2 24 5
18 2 -7 2 -21 0 -30z m-169 -189 c-29 -60 -55 -111 -59 -114 -3 -3 -10 -16
-14 -30 -7 -25 -62 -102 -77 -108 -4 -2 -8 -8 -8 -13 0 -6 -4 -15 -10 -22
-113 -141 -186 -215 -198 -203 -3 4 -6 22 -5 41 1 27 11 46 45 80 23 25 54 65
67 88 13 23 32 48 42 55 11 7 19 19 19 26 0 7 8 22 18 33 9 12 37 44 61 73 25
29 51 58 57 65 7 7 16 24 20 39 3 14 10 26 14 26 4 0 23 32 41 70 33 69 34 70
37 36 2 -25 -11 -63 -50 -142z m149 144 c-3 -8 -6 -5 -6 6 -1 11 2 17 5 13 3
-3 4 -12 1 -19z m-7 -30 c0 -7 -5 -20 -10 -28 -8 -12 -10 -9 -10 13 0 15 5 27
10 27 6 0 10 -6 10 -12z m-2614 -103 c-8 -30 -26 -33 -26 -5 0 23 23 54 28 39
2 -6 1 -21 -2 -34z m392 -71 c3 -76 -4 -118 -18 -109 -16 10 -13 188 3 183 7
-3 13 -30 15 -74z m-773 56 c3 -5 1 -10 -4 -10 -6 0 -11 5 -11 10 0 6 2 10 4
10 3 0 8 -4 11 -10z m2169 -68 c-17 -16 -17 -16 -10 3 5 11 11 29 14 40 6 19
7 19 10 -3 2 -12 -5 -30 -14 -40z m-2174 38 c0 -5 -5 -10 -11 -10 -5 0 -7 5
-4 10 3 6 8 10 11 10 2 0 4 -4 4 -10z m1977 -62 c-3 -8 -6 -5 -6 6 -1 11 2 17
5 13 3 -3 4 -12 1 -19z m-2796 -50 c25 -28 39 -52 39 -69 0 -39 10 -59 29 -59
14 -1 13 -3 -3 -15 -11 -8 -28 -15 -38 -15 -20 0 -25 -26 -6 -32 9 -3 8 -9 -4
-21 -22 -22 -38 -22 -38 1 0 10 -4 22 -9 28 -12 12 -28 167 -22 217 2 14 13 7
52 -35z m969 23 c0 -11 4 -21 8 -23 5 -1 12 -31 15 -65 l7 -62 -75 1 c-64 1
-75 4 -75 18 0 35 53 116 69 105 6 -3 15 5 21 19 11 30 30 34 30 7z m140 -77
c0 -76 -2 -85 -17 -82 -20 4 -33 78 -13 78 6 0 10 10 9 23 -4 44 1 78 11 72 6
-3 10 -44 10 -91z m1861 41 c5 4 9 -1 9 -9 0 -9 -7 -16 -15 -16 -10 0 -15 9
-14 28 1 17 3 20 6 9 2 -9 9 -15 14 -12z m-1911 -7 c0 -19 -2 -20 -10 -8 -13
19 -13 30 0 30 6 0 10 -10 10 -22z m1898 -48 c3 -21 2 -22 -12 -11 -19 16 -21
44 -3 39 6 -3 14 -15 15 -28z m-2378 -79 c0 -5 -11 -11 -25 -13 -14 -3 -22 -1
-18 5 3 5 0 13 -7 17 -7 5 -9 16 -5 29 7 22 7 22 31 -4 13 -14 24 -30 24 -34z
m1350 -1 c0 -13 -6 -20 -17 -19 -11 0 -13 3 -5 6 6 2 12 11 12 19 0 8 2 14 5
14 3 0 5 -9 5 -20z m-2290 -108 c0 -38 3 -118 6 -178 4 -60 4 -107 1 -104 -10
9 -47 159 -47 191 0 47 22 159 32 159 4 0 8 -31 8 -68z m2332 -20 c-7 -2 -10
-8 -6 -13 3 -5 -1 -9 -9 -9 -9 0 -12 9 -9 30 4 27 5 28 20 13 13 -12 14 -17 4
-21z m-1290 -44 c-3 -12 -8 -16 -14 -10 -6 6 -7 20 -3 32 9 28 25 8 17 -22z
m-622 -27 c0 -16 -6 -31 -15 -35 -12 -4 -15 3 -15 29 0 24 5 35 15 35 10 0 15
-10 15 -29z m-480 -81 c0 -6 -7 -13 -15 -16 -8 -4 -15 -12 -15 -20 0 -8 -7
-14 -15 -14 -13 0 -11 6 7 30 22 30 38 39 38 20z m2605 -47 c-4 -10 -11 -31
-15 -48 -7 -28 -8 -28 -9 -5 -1 35 9 70 21 70 6 0 7 -8 3 -17z m-2455 -491 c0
-13 -36 -52 -42 -46 -4 3 4 16 16 29 25 27 26 28 26 17z m330 -211 c0 -20 -32
-91 -42 -91 -13 0 -28 49 -33 106 l-4 53 39 -27 c22 -15 39 -33 40 -41z m1917
-7 c-3 -3 -12 -4 -19 -1 -8 3 -5 6 6 6 11 1 17 -2 13 -5z m-7 -54 c8 -5 12
-12 8 -15 -10 -10 -49 5 -43 16 8 11 16 11 35 -1z m-1812 -425 c2 -10 0 -15
-6 -11 -6 4 -15 -1 -20 -9 -8 -15 -10 -15 -22 0 -12 15 -12 19 5 31 23 17 39
13 43 -11z m-1402 -1135 c19 -23 -5 -50 -43 -50 -49 0 -40 -17 12 -22 33 -2
46 1 49 12 3 11 4 11 5 -3 0 -9 -8 -25 -19 -34 -20 -18 -28 -63 -10 -63 9 0
-7 -47 -20 -60 -3 -3 -25 -34 -49 -70 -25 -36 -48 -66 -53 -68 -4 -2 -8 -10
-8 -18 0 -8 -7 -17 -15 -20 -8 -4 -15 -14 -15 -23 0 -10 -11 -24 -25 -31 -14
-7 -25 -17 -25 -21 0 -18 -132 -142 -152 -143 -16 -1 -26 -13 -41 -51 -10 -27
-34 -82 -53 -121 -19 -40 -34 -76 -34 -82 0 -5 -7 -23 -15 -38 -8 -16 -15 -37
-15 -46 0 -10 -4 -18 -9 -18 -5 0 -12 -8 -15 -17 -12 -34 -111 -202 -125 -213
-3 -3 -19 -25 -35 -49 -16 -25 -33 -50 -38 -55 -4 -6 -22 -29 -38 -51 -17 -22
-46 -57 -65 -79 -19 -21 -35 -44 -35 -51 0 -8 -21 -35 -46 -62 l-46 -48 -207
-1 c-236 -1 -421 -12 -421 -25 0 -5 -11 -9 -25 -9 -21 0 -25 5 -25 28 0 15 7
36 15 46 8 11 15 28 15 37 0 10 4 19 9 21 8 3 26 49 92 233 28 80 73 135 108
135 8 0 29 11 47 25 18 14 37 25 41 25 5 0 18 8 29 18 11 10 39 22 63 26 24 4
56 15 70 25 31 22 86 41 116 41 13 0 28 7 35 14 6 8 35 23 63 32 28 9 58 23
65 31 7 7 17 13 22 13 16 0 90 81 104 115 8 19 19 35 25 35 9 0 71 118 71 137
0 16 57 62 87 69 15 4 42 19 58 35 17 15 60 56 98 91 37 35 73 68 80 75 6 6
27 27 46 47 33 35 61 47 61 26 0 -5 7 -10 15 -10 21 0 19 30 -2 46 -15 10 -16
15 -5 25 6 7 12 19 12 27 0 7 7 20 15 28 8 9 15 24 15 34 0 10 4 21 10 25 5 3
23 32 40 64 l31 58 47 -16 c26 -9 52 -23 58 -31z m324 -30 c0 -5 -6 -10 -14
-10 -8 0 -23 -3 -33 -6 -16 -5 -16 -4 1 10 22 18 46 21 46 6z m-225 -460 c-3
-5 -10 -10 -16 -10 -5 0 -9 5 -9 10 0 6 7 10 16 10 8 0 12 -4 9 -10z m-2315
-160 c0 -5 -4 -10 -9 -10 -6 0 -13 5 -16 10 -3 6 1 10 9 10 9 0 16 -4 16 -10z
m1880 -112 c0 -5 -7 -8 -15 -8 -17 0 -18 2 -9 25 5 13 8 14 15 3 5 -7 9 -16 9
-20z m5007 -264 c-3 -3 -12 -4 -19 -1 -8 3 -5 6 6 6 11 1 17 -2 13 -5z m393
-4 c0 -5 -6 -10 -14 -10 -8 0 -18 5 -21 10 -3 6 3 10 14 10 12 0 21 -4 21 -10z
m-7670 -81 c0 -5 -4 -9 -10 -9 -5 0 -10 7 -10 16 0 8 5 12 10 9 6 -3 10 -10
10 -16z m6773 -93 c6 -14 -1 -26 -14 -26 -4 0 -7 9 -6 20 1 23 12 26 20 6z
m927 -1 c0 -8 7 -15 15 -15 11 0 15 -11 15 -39 0 -22 5 -43 10 -46 6 -3 10
-12 10 -18 0 -7 -7 -4 -14 6 -8 10 -20 15 -30 11 -11 -4 -19 2 -26 21 -11 30
-13 78 -3 88 11 12 23 8 23 -8z m-735 -14 c-3 -6 -14 -11 -23 -11 -15 1 -15 2
2 15 21 16 32 13 21 -4z m1019 -82 c5 -26 3 -36 -7 -36 -9 0 -14 14 -14 44 0
50 11 45 21 -8z m-74 31 c0 -5 -4 -10 -10 -10 -5 0 -10 5 -10 10 0 6 5 10 10
10 6 0 10 -4 10 -10z m-5835 -9 c3 -5 1 -12 -5 -16 -5 -3 -10 1 -10 9 0 18 6
21 15 7z m5732 -53 c-3 -8 -6 -5 -6 6 -1 11 2 17 5 13 3 -3 4 -12 1 -19z
m-779 -20 c-3 -7 -20 -14 -39 -16 l-34 -2 25 15 c31 18 53 19 48 3z m740 -31
c3 -14 -1 -18 -19 -15 -12 2 -23 11 -25 21 -3 25 40 19 44 -6z m-5474 -19 c-5
-13 -8 -35 -9 -50 0 -15 -4 -27 -10 -25 -15 3 -11 87 5 97 20 12 23 6 14 -22z
m6106 22 c0 -5 -4 -10 -10 -10 -5 0 -10 5 -10 10 0 6 5 10 10 10 6 0 10 -4 10
-10z m-6170 -226 c0 -17 -4 -22 -15 -18 -8 4 -15 17 -15 30 0 17 4 22 15 18 8
-4 15 -17 15 -30z m-3 -66 c-3 -8 -6 -5 -6 6 -1 11 2 17 5 13 3 -3 4 -12 1
-19z m2553 -310 c0 -4 6 -5 13 -3 18 7 107 -79 107 -103 0 -31 -36 -87 -76
-117 -30 -23 -41 -26 -90 -21 -30 2 -61 10 -69 16 -8 7 -24 9 -36 5 -13 -5
-25 -2 -29 6 -7 10 -11 10 -24 0 -8 -7 -19 -10 -25 -7 -5 3 -16 3 -25 0 -13
-5 -14 -9 -5 -20 9 -11 7 -14 -10 -14 -11 0 -21 -4 -21 -9 0 -5 -13 -12 -30
-16 -16 -4 -30 -11 -30 -16 0 -5 -7 -9 -15 -9 -9 0 -12 6 -9 15 5 12 -6 15
-66 15 -45 0 -69 4 -65 10 3 6 1 10 -4 10 -6 0 -11 -4 -11 -10 0 -17 -26 -11
-55 14 -21 18 -37 23 -70 21 -23 -2 -51 -8 -63 -14 -11 -6 -43 -10 -70 -10
l-50 2 44 40 c24 22 44 44 44 48 0 9 86 95 115 115 17 11 27 11 58 0 20 -7 46
-22 56 -33 17 -18 30 -19 167 -18 154 3 228 17 230 46 1 8 2 20 3 27 0 6 12
12 26 12 14 0 28 7 31 15 6 15 54 18 54 3z m4048 -71 c2 -12 -1 -15 -12 -11
-19 7 -22 38 -3 32 6 -3 13 -12 15 -21z m-4538 -241 c0 -11 -19 -15 -25 -6 -3
5 1 10 9 10 9 0 16 -2 16 -4z m-1130 -30 c0 -8 -4 -18 -10 -21 -5 -3 -10 3
-10 14 0 12 5 21 10 21 6 0 10 -6 10 -14z m-40 -226 c0 -5 -7 -7 -15 -4 -8 4
-15 8 -15 10 0 2 7 4 15 4 8 0 15 -4 15 -10z m-3063 -237 c-3 -10 -5 -4 -5 12
0 17 2 24 5 18 2 -7 2 -21 0 -30z m-77 -404 c0 -5 -4 -9 -10 -9 -5 0 -10 7
-10 16 0 8 5 12 10 9 6 -3 10 -10 10 -16z m9344 -204 c3 -8 1 -15 -3 -15 -5 0
-11 7 -15 15 -3 8 -1 15 3 15 5 0 11 -7 15 -15z m51 -253 c-8 -8 -25 10 -25
26 0 13 2 13 14 -4 8 -10 13 -21 11 -22z m104 -729 c0 -10 -3 -13 -5 -6 -3 7
-12 9 -21 6 -11 -4 -14 -2 -9 5 11 18 36 14 35 -5z m-2 -109 c-3 -3 -12 -4
-19 -1 -8 3 -5 6 6 6 11 1 17 -2 13 -5z m100 -416 c-3 -8 -6 -5 -6 6 -1 11 2
17 5 13 3 -3 4 -12 1 -19z m-22 -12 c12 -12 11 -15 -10 -19 -19 -3 -25 0 -25
14 0 22 16 25 35 5z m5 -510 c0 -2 -9 -6 -20 -9 -11 -3 -20 -1 -20 4 0 5 9 9
20 9 11 0 20 -2 20 -4z m-6 -39 c11 -10 11 -15 0 -24 -9 -9 -15 -9 -24 2 -6 8
-9 19 -5 25 8 13 14 13 29 -3z m16 -72 c0 -8 -9 -15 -20 -15 -17 0 -19 2 -8
15 17 19 28 19 28 0z"/>
<path d="M7440 8289 c0 -5 5 -7 10 -4 6 3 10 8 10 11 0 2 -4 4 -10 4 -5 0 -10
-5 -10 -11z"/>
<path d="M2811 5599 c-14 -40 -14 -39 4 -39 8 0 15 6 15 14 0 8 5 16 12 18 13
5 4 38 -11 38 -5 0 -14 -14 -20 -31z"/>
<path d="M2235 5150 c-3 -6 1 -7 9 -4 18 7 21 14 7 14 -6 0 -13 -4 -16 -10z"/>
<path d="M4515 3550 c3 -5 11 -10 16 -10 6 0 7 5 4 10 -3 6 -11 10 -16 10 -6
0 -7 -4 -4 -10z"/>
<path d="M4560 3526 c0 -2 7 -6 15 -10 8 -3 15 -1 15 4 0 6 -7 10 -15 10 -8 0
-15 -2 -15 -4z"/>
<path d="M8111 9974 c0 -11 3 -14 6 -6 3 7 2 16 -1 19 -3 4 -6 -2 -5 -13z"/>
<path d="M5453 8818 c-15 -19 -23 -58 -12 -58 5 0 15 11 21 25 6 14 18 25 27
25 14 0 14 2 1 10 -20 13 -26 12 -37 -2z"/>
<path d="M7050 8335 c0 -8 7 -15 15 -15 8 0 15 4 15 9 0 5 -7 11 -15 15 -9 3
-15 0 -15 -9z"/>
<path d="M8598 8025 c2 -14 9 -25 14 -25 6 0 8 6 5 14 -4 10 6 17 31 24 l37
10 -46 1 c-44 1 -46 0 -41 -24z"/>
<path d="M7259 8003 c0 -5 -2 -16 -4 -25 -2 -10 1 -18 6 -18 11 0 30 36 22 44
-9 8 -23 8 -24 -1z"/>
<path d="M7310 7990 c0 -5 5 -10 10 -10 6 0 10 -7 10 -15 0 -8 7 -15 15 -15
19 0 19 2 -4 28 -20 24 -31 28 -31 12z"/>
<path d="M4651 7974 c0 -11 3 -14 6 -6 3 7 2 16 -1 19 -3 4 -6 -2 -5 -13z"/>
<path d="M7277 7938 c8 -14 10 -19 12 -43 0 -8 9 -15 19 -16 10 0 12 -3 5 -6
-7 -2 -13 -11 -13 -19 0 -24 47 -99 65 -102 15 -3 16 2 10 40 -3 23 -9 51 -11
61 -3 9 -1 17 4 17 20 0 -1 56 -26 68 -35 16 -76 16 -65 0z"/>
<path d="M9000 7829 c0 -5 5 -7 10 -4 6 3 10 8 10 11 0 2 -4 4 -10 4 -5 0 -10
-5 -10 -11z"/>
<path d="M7390 7745 c0 -8 7 -15 16 -15 14 0 14 3 4 15 -7 8 -14 15 -16 15 -2
0 -4 -7 -4 -15z"/>
<path d="M4203 7542 c-31 -2 -43 -8 -43 -19 0 -13 8 -14 48 -8 56 10 67 10
110 0 25 -6 32 -4 32 8 0 16 -66 25 -147 19z"/>
<path d="M5206 7112 c-11 -18 14 -33 59 -38 45 -4 47 -3 29 11 -10 8 -27 15
-36 15 -9 0 -20 5 -23 10 -7 12 -22 13 -29 2z"/>
<path d="M8805 6842 c-71 -44 -145 -139 -145 -187 0 -42 16 -55 68 -55 40 0
100 28 110 52 2 5 8 6 13 2 5 -3 9 3 9 12 0 10 3 14 7 11 11 -12 29 36 32 86
2 43 -2 52 -26 73 -34 29 -31 28 -68 6z m55 -57 c0 -8 -7 -15 -15 -15 -8 0
-15 7 -15 15 0 8 7 15 15 15 8 0 15 -7 15 -15z m-80 -70 c0 -8 -4 -15 -10 -15
-5 0 -10 7 -10 15 0 8 5 15 10 15 6 0 10 -7 10 -15z"/>
<path d="M7885 6800 c-12 -4 -27 -15 -34 -24 -17 -20 -31 -21 -31 -1 0 26 -27
16 -40 -15 -21 -50 -6 -144 27 -178 54 -56 119 -65 172 -25 65 49 81 73 81
122 0 33 -18 81 -31 81 -4 0 -14 6 -21 13 -13 12 -77 37 -94 36 -5 0 -18 -4
-29 -9z m-5 -75 c10 -12 10 -18 0 -29 -13 -17 -36 -11 -44 11 -13 32 21 46 44
18z"/>
<path d="M7703 6790 c-27 -11 -30 -26 -5 -32 9 -2 27 7 39 19 19 20 20 23 5
22 -9 0 -27 -4 -39 -9z"/>
<path d="M8162 6600 c0 -14 2 -19 5 -12 2 6 2 18 0 25 -3 6 -5 1 -5 -13z"/>
<path d="M8728 6543 c-34 -4 -38 -7 -38 -34 0 -37 21 -38 67 -3 33 25 43 45
21 42 -7 -1 -30 -3 -50 -5z"/>
<path d="M3770 6241 c0 -12 5 -21 10 -21 6 0 10 6 10 14 0 8 -4 18 -10 21 -5
3 -10 -3 -10 -14z"/>
<path d="M3448 6063 c6 -2 18 -2 25 0 6 3 1 5 -13 5 -14 0 -19 -2 -12 -5z"/>
<path d="M4146 5681 c-4 -7 -5 -15 -2 -18 9 -9 19 4 14 18 -4 11 -6 11 -12 0z"/>
<path d="M4154 5592 c-8 -13 -15 -13 -47 -1 -42 15 -47 12 -56 -33 -6 -28 -12
-33 -38 -36 -23 -2 -33 -9 -37 -27 -7 -28 7 -71 26 -78 10 -3 11 -8 1 -25 -7
-12 -10 -34 -6 -52 5 -26 2 -32 -16 -37 -11 -3 -21 -9 -21 -14 0 -5 6 -6 14
-3 16 6 76 -92 79 -128 1 -25 34 -61 48 -52 4 2 6 11 2 19 -3 8 -1 15 3 16 5
0 17 2 26 4 13 2 17 -2 14 -18 -1 -11 -8 -23 -15 -25 -9 -3 -8 -9 4 -22 13
-14 21 -16 34 -9 13 9 16 28 15 110 -1 98 -1 99 23 99 12 0 23 4 23 10 0 5 -6
7 -13 4 -17 -6 -33 13 -39 48 -4 20 0 29 18 39 13 6 23 15 22 18 -2 12 14 41
21 37 4 -3 5 11 3 30 -2 19 2 42 9 52 11 14 11 15 -1 5 -16 -15 -34 -17 -26
-4 3 4 -1 17 -9 27 -8 10 -15 26 -15 35 0 22 -34 30 -46 11z"/>
<path d="M3166 5591 c-4 -7 -5 -15 -2 -18 9 -9 19 4 14 18 -4 11 -6 11 -12 0z"/>
<path d="M3920 5354 c0 -8 5 -12 10 -9 6 3 10 10 10 16 0 5 -4 9 -10 9 -5 0
-10 -7 -10 -16z"/>
<path d="M3765 5270 c3 -5 8 -10 11 -10 2 0 4 5 4 10 0 6 -5 10 -11 10 -5 0
-7 -4 -4 -10z"/>
<path d="M3840 5225 c0 -8 5 -15 10 -15 6 0 10 7 10 15 0 8 -4 15 -10 15 -5 0
-10 -7 -10 -15z"/>
<path d="M3870 5224 c0 -9 -8 -23 -17 -30 -16 -12 -16 -13 -2 -14 18 0 32 14
42 43 4 11 1 17 -8 17 -8 0 -15 -7 -15 -16z"/>
<path d="M3837 5148 c-7 -27 -1 -39 17 -32 8 3 12 14 9 25 -8 28 -20 32 -26 7z"/>
<path d="M3854 5075 c-4 -8 -1 -22 6 -30 12 -14 7 -19 -15 -16 -5 1 7 -14 27
-34 20 -19 39 -44 43 -54 6 -21 31 -34 46 -25 5 3 9 17 9 31 0 18 4 24 14 20
25 -10 25 18 0 42 -13 13 -24 18 -24 12 0 -6 -4 -11 -10 -11 -5 0 -10 9 -10
20 0 12 -10 24 -22 30 -13 5 -17 9 -10 9 7 1 10 6 7 11 -10 16 -55 12 -61 -5z"/>
<path d="M7300 4838 c1 -7 16 -23 35 -35 34 -21 35 -21 35 -3 0 11 -12 26 -30
35 -35 18 -40 19 -40 3z"/>
<path d="M8205 4749 c-4 -6 2 -19 12 -29 20 -18 20 -17 21 11 1 29 -20 40 -33
18z"/>
<path d="M2797 4683 c-4 -3 -7 -11 -7 -17 0 -6 5 -5 12 2 6 6 9 14 7 17 -3 3
-9 2 -12 -2z"/>
<path d="M7010 4660 c0 -5 7 -10 16 -10 8 0 12 5 9 10 -3 6 -10 10 -16 10 -5
0 -9 -4 -9 -10z"/>
<path d="M6895 4640 c-3 -5 -2 -10 4 -10 5 0 13 5 16 10 3 6 2 10 -4 10 -5 0
-13 -4 -16 -10z"/>
<path d="M7200 4640 c0 -5 4 -10 9 -10 6 0 13 5 16 10 3 6 -1 10 -9 10 -9 0
-16 -4 -16 -10z"/>
<path d="M7235 4600 c-3 -5 1 -10 10 -10 9 0 13 5 10 10 -3 6 -8 10 -10 10 -2
0 -7 -4 -10 -10z"/>
<path d="M6920 4590 c0 -5 7 -10 16 -10 8 0 12 5 9 10 -3 6 -10 10 -16 10 -5
0 -9 -4 -9 -10z"/>
<path d="M8350 4580 c0 -5 5 -10 10 -10 6 0 10 5 10 10 0 6 -4 10 -10 10 -5 0
-10 -4 -10 -10z"/>
<path d="M2712 4524 c3 -29 1 -38 -14 -42 -20 -5 -22 -11 -9 -31 13 -20 41 3
42 33 0 11 3 15 6 9 8 -20 21 -15 25 9 5 35 36 35 41 1 3 -20 4 -16 6 15 1 44
-6 50 -39 30 -15 -10 -22 -10 -32 0 -21 21 -30 13 -26 -24z"/>
<path d="M2805 4230 c-3 -5 -1 -10 4 -10 6 0 11 5 11 10 0 6 -2 10 -4 10 -3 0
-8 -4 -11 -10z"/>
<path d="M2773 4178 c-16 -21 -23 -48 -13 -48 5 0 16 14 25 30 15 30 7 42 -12
18z"/>
<path d="M2857 4121 c-6 -54 -25 -91 -44 -91 -7 0 -13 -4 -13 -9 0 -5 -32 -41
-71 -81 -39 -40 -68 -75 -64 -78 3 -3 11 0 17 6 15 15 55 16 63 1 5 -6 13 -3
22 10 8 12 21 21 29 21 8 0 14 5 14 10 0 6 11 23 25 38 15 15 24 35 21 45 -2
9 0 17 4 17 12 0 29 58 32 110 2 34 -1 45 -13 48 -13 2 -17 -8 -22 -47z"/>
<path d="M2670 4129 c0 -5 5 -7 10 -4 6 3 10 8 10 11 0 2 -4 4 -10 4 -5 0 -10
-5 -10 -11z"/>
<path d="M2692 4080 c0 -14 2 -19 5 -12 2 6 2 18 0 25 -3 6 -5 1 -5 -13z"/>
<path d="M2610 3920 c0 -5 5 -10 10 -10 6 0 10 5 10 10 0 6 -4 10 -10 10 -5 0
-10 -4 -10 -10z"/>
<path d="M2770 3829 c0 -5 5 -7 10 -4 6 3 10 8 10 11 0 2 -4 4 -10 4 -5 0 -10
-5 -10 -11z"/>
<path d="M2750 3797 c0 -9 -4 -17 -10 -17 -5 0 -10 -4 -10 -10 0 -5 4 -10 9
-10 12 0 25 39 17 47 -3 4 -6 -1 -6 -10z"/>
<path d="M2636 3791 c-4 -7 -5 -15 -2 -18 9 -9 19 4 14 18 -4 11 -6 11 -12 0z"/>
<path d="M2895 3390 c-3 -5 -1 -10 4 -10 6 0 11 5 11 10 0 6 -2 10 -4 10 -3 0
-8 -4 -11 -10z"/>
<path d="M2926 3375 c4 -8 8 -15 10 -15 2 0 4 7 4 15 0 8 -4 15 -10 15 -5 0
-7 -7 -4 -15z"/>
<path d="M212 2860 c0 -14 2 -19 5 -12 2 6 2 18 0 25 -3 6 -5 1 -5 -13z"/>
<path d="M9650 2566 c0 -9 7 -16 16 -16 9 0 14 5 12 12 -6 18 -28 21 -28 4z"/>
<path d="M9650 2533 c0 -5 4 -15 10 -23 11 -18 25 -7 17 15 -6 15 -27 21 -27
8z"/>
<path d="M9740 1940 c-13 -8 -12 -10 3 -10 9 0 17 5 17 10 0 12 -1 12 -20 0z"/>
<path d="M9710 1911 c0 -6 5 -13 10 -16 6 -3 10 1 10 9 0 9 -4 16 -10 16 -5 0
-10 -4 -10 -9z"/>
<path d="M9750 1591 c0 -6 4 -12 8 -15 5 -3 9 1 9 9 0 8 -4 15 -9 15 -4 0 -8
-4 -8 -9z"/>
<path d="M9800 1285 c-8 -9 -8 -15 -2 -15 12 0 26 19 19 26 -2 2 -10 -2 -17
-11z"/>
<path d="M9870 1020 c0 -5 5 -10 10 -10 6 0 10 5 10 10 0 6 -4 10 -10 10 -5 0
-10 -4 -10 -10z"/>
<path d="M9885 970 c-3 -5 -1 -10 4 -10 6 0 11 5 11 10 0 6 -2 10 -4 10 -3 0
-8 -4 -11 -10z"/>
<path d="M9932 930 c0 -14 2 -19 5 -12 2 6 2 18 0 25 -3 6 -5 1 -5 -13z"/>
<path d="M9820 600 c-13 -8 -12 -10 3 -10 9 0 17 5 17 10 0 12 -1 12 -20 0z"/>
<path d="M9940 53 c0 -23 15 -39 24 -25 3 5 -1 18 -9 28 -14 18 -14 18 -15 -3z"/>
</g>
</svg>
